<?xml version="1.0" encoding="utf-8" ?>
<svg baseProfile="full" height="1254" version="1.1" viewBox="0 0 1254 1254" width="1254" xmlns="http://www.w3.org/2000/svg" xmlns:ev="http://www.w3.org/2001/xml-events" xmlns:xlink="http://www.w3.org/1999/xlink"><defs><linearGradient id="arrowgrad" x1="0" x2="0" y1="0" y2="1"><stop offset="0" stop-color="#F2C46A" /><stop offset="1" stop-color="#C9852B" /></linearGradient></defs><rect fill="#15161A" height="1254" rx="250.8" ry="250.8" width="1254" x="0" y="0" /><path d="M 927.28,522.62 L 821.90,522.62 L 882.74,417.23 L 988.13,417.23 L 927.28,522.62 Z" fill="#4A565A" fill-rule="evenodd" /><path d="M 429.26,700.23 L 397.27,644.82 L 476.31,599.19 L 371.26,417.23 L 882.74,417.23 L 627.00,860.19 L 521.95,678.23 L 442.91,723.86 L 429.26,700.23 Z" fill="url(#arrowgrad)" fill-rule="evenodd" /><path d="M 821.90,522.62 L 927.28,522.62 L 627.00,1042.72 L 442.91,723.86 L 521.95,678.23 L 627.00,860.19 L 821.90,522.62 Z M 213.18,325.96 L 1040.82,325.96 L 988.13,417.23 L 882.74,417.23 L 371.26,417.23 L 432.10,522.62 L 716.51,522.62 L 663.82,613.88 L 450.86,613.88 L 397.27,644.82 L 342.74,550.37 L 326.72,522.62 L 213.18,325.96 Z" fill="#ECE7DA" fill-rule="evenodd" /></svg>